<?xml version="1.0" encoding="utf-8"?>
<!-- Generator: Adobe Illustrator 19.2.0, SVG Export Plug-In . SVG Version: 6.00 Build 0)  -->
<svg version="1.1" id="Layer_1" xmlns="http://www.w3.org/2000/svg" xmlns:xlink="http://www.w3.org/1999/xlink" x="0px" y="0px"
	 viewBox="0 0 163.6 187.1" style="enable-background:new 0 0 163.6 187.1;" xml:space="preserve">
<style type="text/css">
	.st0{fill:#71C8F1;}
	.st1{fill:#9BD8DB;stroke:#407B79;stroke-width:4.9204;stroke-miterlimit:10;}
	.st2{fill:#255C59;}
	.st3{fill:#F68B1F;}
	.st4{fill:#EE1C4E;}
	.st5{fill:none;stroke:#FFF200;stroke-width:2;stroke-miterlimit:10;}
	.st6{fill:#FFF200;}
	.st7{fill:#FFFFFF;}
	.st8{fill:none;stroke:#000000;stroke-width:4;stroke-miterlimit:10;}
	.st9{fill:none;stroke:#407B79;stroke-width:4.9204;stroke-miterlimit:10;}
	.st10{fill:none;stroke:#407B79;stroke-width:2.7609;stroke-miterlimit:10;}
	.st11{fill:#9BD8DB;stroke:#407B79;stroke-width:2.6288;stroke-miterlimit:10;}
	.st12{fill:#9BD8DB;stroke:#407B79;stroke-width:2.4883;stroke-miterlimit:10;}
	.st13{fill:#9BD8DB;stroke:#407B79;stroke-width:2.7427;stroke-miterlimit:10;}
	.st14{fill:none;stroke:#FFF200;stroke-width:1.1148;stroke-miterlimit:10;}
	.st15{fill:none;stroke:#D1D3D4;stroke-width:1.5389;stroke-miterlimit:10;}
	.st16{fill:none;stroke:#407B79;stroke-width:2.7427;stroke-miterlimit:10;}
</style>
<g>
	<polygon class="st11" points="81.5,7.4 91.3,62 81.5,62 71.7,62 	"/>
	<polygon class="st12" points="50.9,24.9 50.4,47.5 50,70.1 59.6,67.8 69.1,65.4 60,45.1 	"/>
	<polygon class="st12" points="112,24.9 112.4,47.5 112.8,70.1 103.2,67.8 93.7,65.4 102.8,45.1 	"/>
	<polygon class="st12" points="24.7,36.6 29.9,58.5 35.1,80.4 43.7,75.3 52.3,70.1 38.5,53.4 	"/>
	<polygon class="st12" points="136.8,36.6 131.6,58.5 126.4,80.4 117.8,75.3 109.1,70.1 123,53.4 	"/>
	<polygon class="st12" points="159.4,52.6 146.2,70.7 132.9,88.9 127,80.9 121,72.9 140.2,62.7 	"/>
	<polygon class="st12" points="4.2,52.6 17.4,70.7 30.6,88.9 36.6,80.9 42.6,72.9 23.4,62.7 	"/>
	<path class="st13" d="M131.7,185.7H31.5c-5.5,0-10-4.5-10-10V71.5c0-5.5,4.5-10,10-10h100.2c5.5,0,10,4.5,10,10v104.3
		C141.7,181.2,137.2,185.7,131.7,185.7z"/>
	<rect x="33.8" y="126.2" class="st2" width="95.6" height="37.2"/>
	<g>
		<circle class="st3" cx="80.2" cy="145" r="18.4"/>
		<circle class="st4" cx="80.3" cy="154.5" r="4.7"/>
		<circle cx="72.1" cy="139.7" r="1.3"/>
		<circle cx="88.5" cy="139.7" r="1.3"/>
		<line class="st14" x1="71.3" y1="134.6" x2="74.8" y2="138.4"/>
		<line class="st14" x1="89.5" y1="134.6" x2="86" y2="138.4"/>
		<g>
			<g>
				<path class="st6" d="M97.7,132.4c-0.4,0.2-0.9,0.4-1.4,0.7c-0.4,0.2-0.9,0.4-1.4,0.6c-0.7,0.2-1.4,0.5-2.3,0.7
					c-5.1,1.4-11,2.3-15.6,1.6c-4.1-0.7-7.4-1.7-9.7-3l-0.7-0.4c0,0-0.1,1.8-0.6,5.5c-0.3,2.2-2.3,4.9-2.9,6.4c-0.4,0-1,0-1.5-0.1
					c-0.3-0.1-0.5-0.1-0.7-0.1c-0.1-0.6-0.2-1.7,0.1-3.7c0.3-2.2,0.8-5.6,1.9-10.3c0.1-0.4,0.3-0.9,0.5-1.3
					c2.3-5.2,10.4-5.9,15.4-5.1c2.2,0.4,4.6,0.9,7,1.6c1.6,0.4,3.2,1,4.8,1.6c1.4,0.5,2.8,1.1,4.1,1.7c0.2,0.1,0.4,0.2,0.5,0.2
					c0.7,0.3,1.4,0.6,2,0.8c1.1,0.4,2,0.6,2.6,0.7c0.1,0,0.2,0.1,0.3,0.1C99.6,131.1,98.9,131.7,97.7,132.4z"/>
			</g>
		</g>
	</g>
	<path class="st7" d="M33.8,126.2v-9.7c0-3.1,2.5-5.6,5.6-5.6h84.5c3.1,0,5.6,2.5,5.6,5.6v9.7"/>
	<path class="st7" d="M129.4,163.4v9.3c0,3.1-2.5,5.6-5.6,5.6H39.3c-3.1,0-5.6-2.5-5.6-5.6v-9.3"/>
	<line class="st15" x1="33.8" y1="126.2" x2="129.4" y2="126.2"/>
	<line class="st15" x1="33.8" y1="163.4" x2="129.4" y2="163.4"/>
	<path class="st13" d="M35.8,102.1c0-7.2,5.8-13,13-13s13,5.8,13,13"/>
	<path class="st13" d="M101,102.1c0-7.2,5.8-13,13-13s13,5.8,13,13"/>
	<line class="st15" x1="49.3" y1="110.9" x2="49.3" y2="126.2"/>
	<line class="st15" x1="65.4" y1="110.9" x2="65.4" y2="126.2"/>
	<line class="st15" x1="81.6" y1="110.9" x2="81.6" y2="126.2"/>
	<line class="st15" x1="97.8" y1="110.9" x2="97.8" y2="126.2"/>
	<line class="st15" x1="113.9" y1="110.9" x2="113.9" y2="126.2"/>
	<line class="st15" x1="49.3" y1="163.4" x2="49.3" y2="178.7"/>
	<line class="st15" x1="65.4" y1="163.4" x2="65.4" y2="178.7"/>
	<line class="st15" x1="81.6" y1="163.4" x2="81.6" y2="178.7"/>
	<line class="st15" x1="97.8" y1="163.4" x2="97.8" y2="178.7"/>
	<line class="st15" x1="113.9" y1="163.4" x2="113.9" y2="178.7"/>
	<path class="st13" d="M141.7,79.8v-10c0-4.6-3.8-8.4-8.4-8.4l-51.7-5.5l-51.7,5.5c-4.6,0-8.4,3.8-8.4,8.4v10H141.7z"/>
	<line class="st16" x1="31.2" y1="61.5" x2="31.2" y2="80.2"/>
	<line class="st16" x1="41.3" y1="61.5" x2="41.3" y2="80.2"/>
	<line class="st16" x1="51.4" y1="58.7" x2="51.4" y2="80.2"/>
	<line class="st16" x1="61.5" y1="58.7" x2="61.5" y2="80.2"/>
	<line class="st16" x1="71.6" y1="56.9" x2="71.6" y2="80.2"/>
	<line class="st16" x1="81.7" y1="55.9" x2="81.7" y2="80.2"/>
	<line class="st16" x1="91.8" y1="56.9" x2="91.8" y2="80.2"/>
	<line class="st16" x1="101.9" y1="58.7" x2="101.9" y2="80.2"/>
	<line class="st16" x1="111.9" y1="58.7" x2="111.9" y2="80.2"/>
	<line class="st16" x1="122" y1="61.5" x2="122" y2="80.2"/>
	<line class="st16" x1="132.1" y1="61.5" x2="132.1" y2="80.2"/>
	<path class="st16" d="M119.4,178.3H43.8c-5.5,0-10-4.5-10-10v-47.4c0-5.5,4.5-10,10-10h75.6c5.5,0,10,4.5,10,10v47.4
		C129.4,173.8,124.9,178.3,119.4,178.3z"/>
</g>
</svg>
